<?xml version="1.0" encoding="UTF-8" standalone="no"?><!DOCTYPE svg PUBLIC "-//W3C//DTD SVG 1.1//EN" "http://www.w3.org/Graphics/SVG/1.1/DTD/svg11.dtd"><svg width="100%" height="100%" viewBox="0 0 3163 2788" version="1.1" xmlns="http://www.w3.org/2000/svg" xmlns:xlink="http://www.w3.org/1999/xlink" xml:space="preserve" xmlns:serif="http://www.serif.com/" style="fill-rule:evenodd;clip-rule:evenodd;stroke-linejoin:round;stroke-miterlimit:2;"><g><path d="M1158.312,1690.233l0,-61.091l418.771,-699.975l862.5,1441.667l-1725,0l321.557,-537.481l0,61.86l-248.64,417.167l1579.167,0l-789.583,-1324.758l-418.771,702.612" style="fill:url(#_Linear1);"/><path d="M2441.667,1608.927l-66.667,-107.884l0,-66.87l66.667,106.807l0,67.947Zm175,212.422l545.833,874.484l-332.256,0l0,-41.555l257.398,0l-470.975,-762.157l0,-70.772Zm-362.5,-515.845l-120.833,-195.539l0,-62.969l120.833,193.588l0,64.92Zm-237.5,-384.335l-184.306,-298.253l36.271,-0l148.035,237.168l0,61.085Zm-271.849,-439.92l-163.568,-264.695l-206.25,333.765l0,-57.385l206.25,-330.435l198.957,318.75l-35.388,0Zm-494.818,271.352l-75,121.369l0,-60.614l75,-120.158l0,59.403Zm-179.167,289.937l-159.376,257.91l0.057,-64.96l159.319,-255.246l0,62.296Zm-257.473,416.657l-312.256,505.309l-21.903,-36.404l334.217,-535.452l-0.058,66.546Zm-487.931,789.595l-250.571,405.487l247.165,0l0,41.555l-322.024,0l302.658,-484.891l22.772,37.848Zm127.547,405.487l2235.659,0l0,41.555l-2235.659,-0l0,-41.555Z" style="fill:url(#_Linear2);"/></g><g><g id="Green-Candle" serif:id="Green Candle"><rect x="850" y="1141.667" width="25" height="750" style="fill:#e54f64;"/><rect x="783.333" y="1433.333" width="158.333" height="179.167" style="fill:#e54f64;"/><path d="M918.75,1602.445l-112.5,0l0,-159.056l112.5,0l0,159.056Z" style="fill:url(#_Linear3);"/></g><g id="Green-Candle1" serif:id="Green Candle"><rect x="1325" y="366.667" width="25" height="791.667" style="fill:#3bd07c;"/><rect x="1258.333" y="570.833" width="158.333" height="325" style="fill:#38eb8b;"/><path d="M1393.75,877.594l-112.5,0l0,-288.52l112.5,0l0,288.52Z" style="fill:url(#_Linear4);"/></g><g id="Green-Candle2" serif:id="Green Candle"><rect x="2275" y="1087.5" width="25" height="695.833" style="fill:#3bd07c;"/><rect x="2208.333" y="1279.167" width="158.333" height="325" style="fill:#38eb8b;"/><path d="M2343.75,1585.927l-112.5,0l0,-288.52l112.5,0l0,288.52Z" style="fill:url(#_Linear5);"/></g><g id="Green-Candle3" serif:id="Green Candle"><rect x="1087.5" y="633.333" width="25" height="1279.167" style="fill:#3bd07c;"/><rect x="1020.833" y="816.667" width="158.333" height="679.167" style="fill:#38eb8b;"/><path d="M1156.25,1457.717l-112.5,0l0,-602.934l112.5,0l0,602.934Z" style="fill:url(#_Linear6);"/></g><g id="Green-Candle4" serif:id="Green Candle"><rect x="612.5" y="1191.667" width="25" height="1050" style="fill:#3bd07c;"/><rect x="545.833" y="1512.5" width="158.333" height="595.833" style="fill:#38eb8b;"/><path d="M681.25,2074.894l-112.5,0l0,-528.954l112.5,0l0,528.954Z" style="fill:url(#_Linear7);"/></g><g id="Green-Candle5" serif:id="Green Candle"><rect x="375" y="1787.5" width="25" height="950" style="fill:#3bd07c;"/><rect x="308.333" y="1979.167" width="158.333" height="475" style="fill:#38eb8b;"/><path d="M443.75,2427.509l-112.5,0l0,-421.684l112.5,0l0,421.684Z" style="fill:url(#_Linear8);"/></g><g id="Green-Candle6" serif:id="Green Candle"><rect x="1562.5" y="0" width="25" height="791.667" style="fill:#3bd07c;"/><rect x="1495.833" y="229.167" width="158.333" height="408.333" style="fill:#38eb8b;"/><path d="M1631.25,614.583l-112.5,0l0,-362.5l112.5,0l0,362.5Z" style="fill:url(#_Linear9);"/></g><g id="Green-Candle7" serif:id="Green Candle"><rect x="2033.333" y="725" width="25" height="837.5" style="fill:#e54f64;"/><rect x="1966.667" y="975" width="158.333" height="425" style="fill:#e54f64;"/><path d="M2102.083,1376.148l-112.5,0l0,-377.296l112.5,0l0,377.296Z" style="fill:url(#_Linear10);"/></g><g id="Green-Candle8" serif:id="Green Candle"><rect x="1800" y="212.5" width="25" height="908.333" style="fill:#e54f64;"/><rect x="1733.333" y="500" width="158.333" height="512.5" style="fill:#e54f64;"/><path d="M1868.75,983.737l-112.5,0l0,-454.974l112.5,0l0,454.974Z" style="fill:url(#_Linear11);"/></g><g id="Green-Candle9" serif:id="Green Candle"><rect x="2516.667" y="1062.5" width="25" height="1100" style="fill:#e54f64;"/><rect x="2450" y="1312.5" width="158.333" height="495.833" style="fill:#e54f64;"/><path d="M2585.417,1780.506l-112.5,0l0,-440.179l112.5,0l0,440.179Z" style="fill:url(#_Linear12);"/></g><g id="Green-Candle10" serif:id="Green Candle"><rect x="2750" y="1633.333" width="25" height="1154.167" style="fill:#e54f64;"/><rect x="2683.333" y="1795.833" width="158.333" height="641.667" style="fill:#e54f64;"/><path d="M2818.75,2401.488l-112.5,0l0,-569.643l112.5,0l0,569.643Z" style="fill:url(#_Linear13);"/></g></g><defs><linearGradient id="_Linear1" x1="0" y1="0" x2="1" y2="0" gradientUnits="userSpaceOnUse" gradientTransform="matrix(1175,0,0,1466.666667,1558.333333,1679.166667)"><stop offset="0" style="stop-color:#0ea4e6;stop-opacity:1"/><stop offset="0.49" style="stop-color:#36def3;stop-opacity:1"/><stop offset="1" style="stop-color:#39ef85;stop-opacity:1"/></linearGradient><linearGradient id="_Linear2" x1="0" y1="0" x2="1" y2="0" gradientUnits="userSpaceOnUse" gradientTransform="matrix(1866.666667,0,0,2566.666667,-250,1445.833333)"><stop offset="0" style="stop-color:#0ea4e6;stop-opacity:1"/><stop offset="0.49" style="stop-color:#36def3;stop-opacity:1"/><stop offset="1" style="stop-color:#39ef85;stop-opacity:1"/></linearGradient><linearGradient id="_Linear3" x1="0" y1="0" x2="1" y2="0" gradientUnits="userSpaceOnUse" gradientTransform="matrix(0,159.056122,-112.5,0,862.5,1443.388605)"><stop offset="0" style="stop-color:#fc848d;stop-opacity:1"/><stop offset="1" style="stop-color:#a71c45;stop-opacity:1"/></linearGradient><linearGradient id="_Linear4" x1="0" y1="0" x2="1" y2="0" gradientUnits="userSpaceOnUse" gradientTransform="matrix(0,288.520408,-112.5,0,1337.5,589.073129)"><stop offset="0" style="stop-color:#7aff97;stop-opacity:1"/><stop offset="1" style="stop-color:#0d9b6f;stop-opacity:1"/></linearGradient><linearGradient id="_Linear5" x1="0" y1="0" x2="1" y2="0" gradientUnits="userSpaceOnUse" gradientTransform="matrix(0,288.520408,-112.5,0,2287.5,1297.406463)"><stop offset="0" style="stop-color:#7aff97;stop-opacity:1"/><stop offset="1" style="stop-color:#0d9b6f;stop-opacity:1"/></linearGradient><linearGradient id="_Linear6" x1="0" y1="0" x2="1" y2="0" gradientUnits="userSpaceOnUse" gradientTransform="matrix(0,602.933673,-112.5,0,1100,854.783163)"><stop offset="0" style="stop-color:#7aff97;stop-opacity:1"/><stop offset="1" style="stop-color:#0d9b6f;stop-opacity:1"/></linearGradient><linearGradient id="_Linear7" x1="0" y1="0" x2="1" y2="0" gradientUnits="userSpaceOnUse" gradientTransform="matrix(0,528.954082,-112.5,0,625,1545.939626)"><stop offset="0" style="stop-color:#7aff97;stop-opacity:1"/><stop offset="1" style="stop-color:#0d9b6f;stop-opacity:1"/></linearGradient><linearGradient id="_Linear8" x1="0" y1="0" x2="1" y2="0" gradientUnits="userSpaceOnUse" gradientTransform="matrix(0,421.683673,-112.5,0,387.5,2005.82483)"><stop offset="0" style="stop-color:#7aff97;stop-opacity:1"/><stop offset="1" style="stop-color:#0d9b6f;stop-opacity:1"/></linearGradient><linearGradient id="_Linear9" x1="0" y1="0" x2="1" y2="0" gradientUnits="userSpaceOnUse" gradientTransform="matrix(0,362.5,-112.5,0,1575,252.083333)"><stop offset="0" style="stop-color:#7aff97;stop-opacity:1"/><stop offset="1" style="stop-color:#0d9b6f;stop-opacity:1"/></linearGradient><linearGradient id="_Linear10" x1="0" y1="0" x2="1" y2="0" gradientUnits="userSpaceOnUse" gradientTransform="matrix(0,377.295918,-112.5,0,2045.833333,998.852041)"><stop offset="0" style="stop-color:#fc848d;stop-opacity:1"/><stop offset="1" style="stop-color:#a71c45;stop-opacity:1"/></linearGradient><linearGradient id="_Linear11" x1="0" y1="0" x2="1" y2="0" gradientUnits="userSpaceOnUse" gradientTransform="matrix(0,454.97449,-112.5,0,1812.5,528.762755)"><stop offset="0" style="stop-color:#fc848d;stop-opacity:1"/><stop offset="1" style="stop-color:#a71c45;stop-opacity:1"/></linearGradient><linearGradient id="_Linear12" x1="0" y1="0" x2="1" y2="0" gradientUnits="userSpaceOnUse" gradientTransform="matrix(0,440.178571,-112.5,0,2529.166667,1340.327381)"><stop offset="0" style="stop-color:#fc848d;stop-opacity:1"/><stop offset="1" style="stop-color:#a71c45;stop-opacity:1"/></linearGradient><linearGradient id="_Linear13" x1="0" y1="0" x2="1" y2="0" gradientUnits="userSpaceOnUse" gradientTransform="matrix(0,569.642857,-112.5,0,2762.5,1831.845238)"><stop offset="0" style="stop-color:#fc848d;stop-opacity:1"/><stop offset="1" style="stop-color:#a71c45;stop-opacity:1"/></linearGradient></defs></svg>